{"title":"Wolf Creek S01E02 Kutyukutyu 720p HDTV HEVC 2CH x265","uid":15788358,"size":313170478,"categoryP":"video","categoryS":"hd___tv_shows","magnet":"?xt=urn:btih:018eaa7b1794237acabda8b1725369a760613f1c&amp;dn=Wolf+Creek+S01E02+Kutyukutyu+720p+HDTV+HEVC+2CH+x265&amp;tr=udp%3A%2F%2Ftracker.leechers-paradise.org%3A6969&amp;tr=udp%3A%2F%2Fzer0day.ch%3A1337&amp;tr=udp%3A%2F%2Fopen.demonii.com%3A1337&amp;tr=udp%3A%2F%2Ftracker.coppersurfer.tk%3A6969&amp;tr=udp%3A%2F%2Fexodus.desync.com%3A6969","seeders":6,"leechers":2,"uploader":"nayhtut","files":1,"time":1473354883,"description":"Source: Wolf Creek S01E02 Kutyukutyu 720p HDTV X264-BullRout (1 GB)\r\n\r\n\r\nComplete name                            : Wolf.Creek.S01E02.Kutyukutyu.720p.HDTV.HEVC.2CH.x265.mkv\r\nFormat                                   : Matroska\r\nFormat version                           : Version 4 / Version 2\r\nFile size                                : 299 MiB\r\nDuration                                 : 42mn 49s\r\nOverall bit rate                         : 975 Kbps\r\nWriting application                      : Lavf57.25.100\r\nWriting library                          : Lavf57.25.100\r\n\r\nVideo\r\n\r\nID                                       : 1\r\nFormat                                   : V_MPEGH/ISO/HEVC\r\nCodec ID                                 : V_MPEGH/ISO/HEVC\r\nDuration                                 : 42mn 49s\r\nBit rate                                 : 764 Kbps\r\nWidth                                    : 1 280 pixels\r\nHeight                                   : 640 pixels\r\nDisplay aspect ratio                     : 2.000\r\nFrame rate                               : 25.000 fps\r\nBits/(Pixel*Frame)                       : 0.037\r\nStream size                              : 234 MiB (78%)\r\nWriting library                          : Lavc57.48.101 libx265\r\nDefault                                  : Yes\r\nForced                                   : No\r\nDURATION                                 : 00:42:49.571000000\r\n\r\nAudio\r\n\r\nID                                       : 2\r\nFormat                                   : AC-3\r\nFormat/Info                              : Audio Coding 3\r\nMode extension                           : CM (complete main)\r\nFormat settings, Endianness              : Big\r\nCodec ID                                 : A_AC3\r\nDuration                                 : 42mn 49s\r\nBit rate mode                            : Constant\r\nBit rate                                 : 192 Kbps\r\nChannel(s)                               : 2 channels\r\nChannel positions                        : Front: L R\r\nSampling rate                            : 48.0 KHz\r\nBit depth                                : 16 bits\r\nCompression mode                         : Lossy\r\nStream size                              : 58.8 MiB (20%)\r\nWriting library                          : Lavc57.24.102 ac3\r\nDefault                                  : Yes\r\nForced                                   : No\r\nDURATION                                 : 00:42:49.50300000","torrent":{"xt":"urn:btih:018eaa7b1794237acabda8b1725369a760613f1c","amp;dn":"Wolf+Creek+S01E02+Kutyukutyu+720p+HDTV+HEVC+2CH+x265","amp;tr":["udp%3A%2F%2Ftracker.leechers-paradise.org%3A6969","udp%3A%2F%2Fzer0day.ch%3A1337","udp%3A%2F%2Fopen.demonii.com%3A1337","udp%3A%2F%2Ftracker.coppersurfer.tk%3A6969","udp%3A%2F%2Fexodus.desync.com%3A6969"],"infoHash":"018eaa7b1794237acabda8b1725369a760613f1c","infoHashBuffer":{"type":"Buffer","data":[1,142,170,123,23,148,35,122,202,189,168,177,114,83,105,167,96,97,63,28]},"announce":[],"urlList":[]}}